<svg xmlns="http://www.w3.org/2000/svg" xmlns:xlink="http://www.w3.org/1999/xlink" preserveAspectRatio="xMidYMid" width="44" height="48" viewBox="0 0 44 48">
  <defs>
    <style>
      .cls-1 {
        fill: #fff;
      }

      .cls-1, .cls-2 {
        fill-rule: evenodd;
      }

      .cls-2 {
        fill: #0499c5;
      }
    </style>
  </defs>
  <g>
    <path d="M43.403,23.027 L40.416,23.027 L40.106,15.575 C40.106,15.233 39.819,14.956 39.464,14.956 L38.753,14.956 L38.440,13.995 L43.377,13.995 C43.721,13.995 44.000,14.264 44.000,14.595 L44.000,22.435 C44.000,22.762 43.733,23.027 43.403,23.027 ZM39.000,27.000 C40.100,27.000 41.000,27.910 41.000,29.000 L41.000,37.000 L24.000,37.000 L20.000,37.000 L3.000,37.000 L3.000,29.000 C3.000,27.910 3.900,27.000 5.000,27.000 L5.000,22.000 L6.173,14.939 C6.493,13.870 7.064,12.966 8.164,12.966 L16.837,12.966 L20.000,12.966 L24.000,12.966 L27.163,12.966 L35.836,12.966 C36.936,12.966 37.507,13.870 37.827,14.939 L39.000,22.000 L39.000,27.000 ZM14.000,35.000 L20.000,35.000 L24.000,35.000 L30.000,35.000 L30.000,27.000 C30.000,25.911 29.100,25.000 28.000,25.000 L24.000,25.000 L20.000,25.000 L16.000,25.000 C14.900,25.000 14.000,25.911 14.000,27.000 L14.000,35.000 ZM4.998,32.410 L4.998,33.612 C4.998,33.833 5.161,34.013 5.362,34.013 L10.641,34.013 C10.842,34.013 11.005,33.833 11.005,33.612 L11.005,32.410 C11.005,32.188 10.842,32.009 10.641,32.009 L5.362,32.009 C5.161,32.009 4.998,32.188 4.998,32.410 ZM37.000,15.000 C37.000,14.564 36.440,14.000 36.000,14.000 L24.000,14.000 L20.000,14.000 L8.000,14.000 C7.560,14.000 7.000,14.564 7.000,15.000 L6.000,22.000 C6.000,22.436 6.560,23.000 7.000,23.000 L20.000,23.000 L24.000,23.000 L37.000,23.000 C37.440,23.000 38.000,22.436 38.000,22.000 L37.000,15.000 ZM38.638,32.009 L33.359,32.009 C33.158,32.009 32.995,32.188 32.995,32.410 L32.995,33.612 C32.995,33.833 33.158,34.013 33.359,34.013 L38.638,34.013 C38.839,34.013 39.002,33.833 39.002,33.612 L39.002,32.410 C39.002,32.188 38.839,32.009 38.638,32.009 ZM15.000,22.000 L16.000,15.000 L17.000,15.000 L16.000,22.000 L15.000,22.000 ZM10.000,22.000 L11.000,15.000 L14.000,15.000 L13.000,22.000 L10.000,22.000 ZM4.536,14.956 C4.181,14.956 3.894,15.233 3.894,15.575 L3.584,23.027 L0.597,23.027 C0.267,23.027 0.000,22.762 0.000,22.435 L0.000,14.595 C0.000,14.264 0.279,13.995 0.623,13.995 L5.560,13.995 L5.247,14.956 L4.536,14.956 ZM24.000,38.000 L42.000,38.000 L42.000,42.000 L30.000,44.000 L24.000,44.000 L20.000,44.000 L14.000,44.000 L2.000,42.000 L2.000,38.000 L20.000,38.000 L24.000,38.000 ZM4.000,44.000 L11.000,45.000 L10.990,47.192 C10.990,47.638 10.624,48.000 10.172,48.000 L3.825,48.000 C3.373,48.000 3.007,47.638 3.007,47.192 L3.000,45.000 C3.000,44.456 3.385,44.000 4.000,44.000 ZM41.000,45.000 L40.994,47.192 C40.994,47.638 40.627,48.000 40.175,48.000 L33.829,48.000 C33.376,48.000 33.010,47.638 33.010,47.192 L33.000,45.000 L40.000,44.000 C40.615,44.000 41.000,44.456 41.000,45.000 Z" class="cls-1"/>
    <path d="M33.000,7.000 L33.732,5.437 C34.004,4.422 32.549,3.778 31.997,4.779 L31.000,7.000 L31.000,12.000 L24.000,12.000 L20.000,12.000 L13.000,12.000 L13.000,7.000 L12.003,4.779 C11.451,3.778 9.996,4.422 10.268,5.437 L11.000,7.000 L11.000,12.000 L7.000,12.000 L5.000,13.000 L5.000,2.000 C5.000,0.910 5.900,0.000 7.000,0.000 L20.000,0.000 L24.000,0.000 L37.000,0.000 C38.100,0.000 39.000,0.910 39.000,2.000 L39.000,13.000 L37.000,12.000 L33.000,12.000 L33.000,7.000 Z" class="cls-2"/>
  </g>
</svg>
