<svg xmlns="http://www.w3.org/2000/svg" xmlns:xlink="http://www.w3.org/1999/xlink" preserveAspectRatio="xMidYMid" width="43" height="49" viewBox="0 0 43 49">
  <defs>
    <style>
      .cls-1 {
        fill: #0499c5;
      }

      .cls-1, .cls-2 {
        fill-rule: evenodd;
      }

      .cls-2 {
        fill: #fff;
      }
    </style>
  </defs>
  <g>
    <path d="M-0.000,49.000 L-0.000,13.000 L43.000,13.000 L43.000,49.000 L-0.000,49.000 ZM40.000,16.000 L3.000,16.000 L3.000,46.000 L40.000,46.000 L40.000,16.000 ZM22.990,-0.016 L31.601,-0.016 L39.000,10.000 L22.990,10.011 L22.990,-0.016 ZM11.399,0.016 L20.010,0.016 L20.010,10.011 L4.000,10.000 L11.399,0.016 Z" class="cls-1"/>
    <path d="M29.001,33.056 L23.453,38.932 L23.469,38.949 L21.500,41.001 L19.531,38.949 L19.547,38.932 L13.999,33.056 L15.968,31.004 L20.000,35.274 L20.000,22.000 L23.000,22.000 L23.000,35.274 L27.032,31.004 L29.001,33.056 Z" class="cls-2"/>
  </g>
</svg>
