<svg xmlns="http://www.w3.org/2000/svg" xmlns:xlink="http://www.w3.org/1999/xlink" preserveAspectRatio="xMidYMid" width="54" height="44" viewBox="0 0 54 44">
  <defs>
    <style>
      .cls-1 {
        fill: #0499c5;
      }

      .cls-1, .cls-2 {
        fill-rule: evenodd;
      }

      .cls-2 {
        fill: #fff;
      }
    </style>
  </defs>
  <g>
    <path d="M0.000,44.000 L0.000,25.000 L3.000,25.000 L3.000,41.000 L42.000,41.000 L42.000,25.000 L45.000,25.000 L45.000,44.000 L0.000,44.000 ZM11.500,33.014 C11.956,32.402 12.678,32.000 13.500,32.000 C14.881,32.000 16.000,33.119 16.000,34.500 C16.000,35.881 14.881,37.000 13.500,37.000 C12.678,37.000 11.956,36.598 11.500,35.986 C11.044,36.598 10.322,37.000 9.500,37.000 C8.119,37.000 7.000,35.881 7.000,34.500 C7.000,33.119 8.119,32.000 9.500,32.000 C10.322,32.000 11.044,32.402 11.500,33.014 ZM0.000,18.000 L30.888,18.000 C32.080,20.058 33.779,21.778 35.816,23.000 L0.000,23.000 L0.000,18.000 ZM29.051,12.000 L3.000,12.000 L3.000,16.000 L0.000,16.000 L0.000,9.000 L29.159,9.000 C29.065,9.655 29.000,10.319 29.000,11.000 C29.000,11.338 29.027,11.668 29.051,12.000 Z" class="cls-1"/>
    <path d="M43.000,22.000 C36.925,22.000 32.000,17.075 32.000,11.000 C32.000,4.925 36.925,0.000 43.000,0.000 C49.075,0.000 54.000,4.925 54.000,11.000 C54.000,17.075 49.075,22.000 43.000,22.000 ZM46.711,13.284 L44.000,10.573 L44.000,4.000 C44.000,3.448 43.552,3.000 43.000,3.000 C42.448,3.000 42.000,3.448 42.000,4.000 L42.000,10.971 C41.991,11.240 42.084,11.511 42.289,11.716 L45.284,14.711 C45.678,15.105 46.317,15.105 46.711,14.711 C47.105,14.317 47.105,13.678 46.711,13.284 Z" class="cls-2"/>
  </g>
</svg>
