<svg xmlns="http://www.w3.org/2000/svg" xmlns:xlink="http://www.w3.org/1999/xlink" preserveAspectRatio="xMidYMid" width="14" height="14" viewBox="0 0 14 14">
  <defs>
    <style>
      .cls-1 {
        fill: #fff;
        fill-rule: evenodd;
      }
    </style>
  </defs>
  <path d="M13.750,13.750 C13.450,14.051 12.962,14.051 12.662,13.750 L9.885,10.974 C7.470,12.848 3.994,12.703 1.776,10.484 C-0.629,8.080 -0.629,4.181 1.776,1.775 C4.180,-0.629 8.080,-0.629 10.484,1.775 C12.703,3.994 12.848,7.470 10.974,9.885 L13.750,12.661 C14.051,12.962 14.051,13.450 13.750,13.750 ZM9.396,2.864 C7.592,1.061 4.668,1.061 2.864,2.864 C1.060,4.668 1.060,7.592 2.864,9.396 C4.668,11.199 7.592,11.199 9.396,9.396 C11.199,7.592 11.199,4.668 9.396,2.864 Z" class="cls-1"/>
</svg>
