<svg xmlns="http://www.w3.org/2000/svg" xmlns:xlink="http://www.w3.org/1999/xlink" preserveAspectRatio="xMidYMid" width="14" height="17" viewBox="0 0 14 17">
  <defs>
    <style>
      .cls-1 {
        fill: #0499c5;
        fill-rule: evenodd;
      }
    </style>
  </defs>
  <path d="M12.428,17.000 C12.020,13.738 9.951,12.498 7.000,12.498 C4.049,12.498 1.979,13.738 1.572,17.000 L-0.005,17.000 C0.513,12.929 3.399,10.998 7.000,10.998 C10.601,10.998 13.487,12.929 14.005,17.000 L12.428,17.000 ZM7.000,9.989 C4.232,9.989 1.987,7.753 1.987,4.994 C1.987,2.236 4.232,0.000 7.000,0.000 C9.768,0.000 12.012,2.236 12.012,4.994 C12.012,7.753 9.768,9.989 7.000,9.989 ZM7.000,1.665 C5.155,1.665 3.658,3.155 3.658,4.994 C3.658,6.833 5.155,8.324 7.000,8.324 C8.845,8.324 10.341,6.833 10.341,4.994 C10.341,3.155 8.845,1.665 7.000,1.665 Z" class="cls-1"/>
</svg>
